<svg width="160" height="160" viewBox="0 0 40 40" fill="none" xmlns="http://www.w3.org/2000/svg" role="img" aria-label="MOECISH">
  <path d="M20 3.5L32.5 7.8c.6.2 1 .8 1 1.5V19c0 8-5 14.2-12.4 16.3a1.8 1.8 0 01-1 0C12.5 33.2 7.5 27 7.5 19V9.3c0-.7.4-1.3 1-1.5L20 3.5z" fill="url(#moecish-shield)"></path>
  <path d="M20 3.5L32.5 7.8c.6.2 1 .8 1 1.5V19c0 8-5 14.2-12.4 16.3a1.8 1.8 0 01-1 0C12.5 33.2 7.5 27 7.5 19V9.3c0-.7.4-1.3 1-1.5L20 3.5z" fill="url(#moecish-shine)" opacity="0.45"></path>
  <path d="M13.6 20.2l4.2 4.2 8.6-10" stroke="#ffffff" stroke-width="2.6" stroke-linecap="round" stroke-linejoin="round" fill="none"></path>
  <defs>
    <linearGradient id="moecish-shield" x1="6" y1="2" x2="34" y2="38" gradientUnits="userSpaceOnUse">
      <stop offset="0%" stop-color="#5389bd"></stop>
      <stop offset="55%" stop-color="#3a6ba0"></stop>
      <stop offset="100%" stop-color="#27436a"></stop>
    </linearGradient>
    <linearGradient id="moecish-shine" x1="10" y1="5" x2="20" y2="20" gradientUnits="userSpaceOnUse">
      <stop offset="0%" stop-color="#ffffff" stop-opacity="0.35"></stop>
      <stop offset="100%" stop-color="#ffffff" stop-opacity="0"></stop>
    </linearGradient>
  </defs>
</svg>